<svg width="0" height="0">
  <defs>
    <mask id="tattered-mask">
      <rect x="0" y="0" width="100%" height="100%" fill="white" />
      <path fill="black" d="
        M0,20 
        C20,0 40,40 60,10 
        C80,0 100,40 120,10 
        C140,0 160,40 180,10 
        C200,0 220,40 240,10 
        C260,0 280,40 300,10 
        C320,0 340,40 360,10 
        L360,200 
        C340,220 320,180 300,210 
        C280,220 260,180 240,210 
        C220,220 200,180 180,210 
        C160,220 140,180 120,210 
        C100,220 80,180 60,210 
        C40,220 20,180 0,200 
        Z" />
    </mask>
  </defs>
</svg>
